#!OML:ASF E:\Mandelcareful walks\Project 1\Capture day 1\Session 1\Subject1.ASF
:FULLY-SPECIFIED
:DEGREES
490
root -23.9968 15.5501 -0.771114 381.629 118.749 7.27265
lowerback 10.3816 4.11624 -0.144699
upperback 5.0393 5.69245 -0.189869
thorax -0.548754 2.94792 -0.718878
lowerneck -28.4752 -0.429958 -3.57175
upperneck 32.1049 2.98823 -2.73514
head 16.3256 0.572595 0.133035
rclavicle 3.39425e-014 -1.58034e-014
rhumerus -24.214 20.0074 -81.4809
rradius 71.2292
rwrist -15.4363
rhand -2.09535 -20.847
rfingers 7.12502
rthumb 23.5819 -49.4211
lclavicle 3.39425e-014 -1.58034e-014
lhumerus -46.6407 7.98382 65.5654
lradius 26.6367
lwrist 11.2839
lhand -26.6102 -9.48881
lfingers 7.12502
lthumb -0.0436356 20.4909
rfemur 19.3324 -10.1858 21.8958
rtibia -9.54166e-015
rfoot -15.3826 -19.213
rtoes -19.502
lfemur -53.182 15.8488 -18.2901
ltibia 68.8652
lfoot -18.401 4.13485
ltoes -5.44535
491
root -23.76 15.4395 -0.950798 381.712 119.361 6.75075
lowerback 9.7796 4.35463 -0.455344
upperback 4.96721 5.97257 -0.362269
thorax -0.30578 3.08054 -0.705489
lowerneck -28.2302 -1.00913 -3.88628
upperneck 32.1596 1.86291 -1.72037
head 16.2726 0.229567 0.383214
rclavicle 1.31198e-014 1.58034e-014
rhumerus -25.3018 19.5966 -81.2434
rradius 70.5653
rwrist -15.0767
rhand -6.15095 -19.2929
rfingers 7.12502
rthumb 19.6872 -48.316
lclavicle 1.31198e-014 1.58034e-014
lhumerus -46.0024 5.3401 67.3084
lradius 29.7528
lwrist 15.2478
lhand -26.7326 -9.62934
lfingers 7.12502
lthumb -0.161784 20.3503
rfemur 20.0694 -9.94161 21.5719
rtibia 0
rfoot -15.3023 -19.1531
rtoes -20.8202
lfemur -53.6107 16.7232 -19.3214
ltibia 70.3672
lfoot -19.233 3.88464
ltoes -6.9646
492
root -23.5084 15.353 -1.16081 381.277 119.759 5.6425
lowerback 9.34184 4.4382 -1.06341
upperback 5.05461 6.04126 -0.514936
thorax -0.0201466 3.10677 -0.491532
lowerneck -28.6407 -1.46807 -4.45204
upperneck 32.0481 1.03803 -0.719602
head 16.3035 -0.0398295 0.732224
rclavicle -3.4191e-014 -1.66979e-014
rhumerus -26.0206 19.5624 -80.8725
rradius 69.4316
rwrist -15.4797
rhand -3.85923 -20.4208
rfingers 7.12502
rthumb 21.8891 -49.2026
lclavicle -3.4191e-014 -1.66979e-014
lhumerus -45.2758 3.54102 69.05
lradius 33.2388
lwrist 18.6604
lhand -26.7052 -9.73176
lfingers 7.12502
lthumb -0.135366 20.2479
rfemur 20.7818 -9.57364 20.7533
rtibia 3.18055e-015
rfoot -14.3042 -19.2333
rtoes -23.0769
lfemur -53.4083 17.2899 -20.5522
ltibia 71.4333
lfoot -21.0527 3.32203
ltoes -6.86591
493
root -23.2408 15.2922 -1.40006 381.052 120.087 4.66083
lowerback 8.67562 4.58321 -1.56802
upperback 5.17576 6.21329 -0.686726
thorax 0.43706 3.1841 -0.339444
lowerneck -28.9538 -2.02459 -5.06266
upperneck 31.793 -0.00991492 0.509531
head 16.2675 -0.36718 1.13735
rclavicle -5.48646e-014 5.68524e-014
rhumerus -26.9902 19.1179 -80.6387
rradius 67.8941
rwrist -16.0322
rhand -3.25814 -20.5593
rfingers 7.12502
rthumb 22.4662 -49.2725
lclavicle -5.48646e-014 5.68524e-014
lhumerus -44.4673 1.57403 70.7088
lradius 37.1041
lwrist 21.267
lhand -26.5352 -10.0722
lfingers 7.12502
lthumb 0.028789 19.9075
rfemur 19.0089 -9.15908 19.9326
rtibia 4.49939
rfoot -14.5299 -19.0003
rtoes -25.3151
lfemur -52.8128 17.4869 -21.5801
ltibia 71.9782
lfoot -23.6109 2.0058
ltoes -5.70053
494
root -22.9783 15.2654 -1.63465 380.742 120.935 3.80021
lowerback 8.69518 4.69037 -1.87414
upperback 5.07036 6.32634 -0.815902
thorax 0.299569 3.23508 -0.321623
lowerneck -28.5711 -2.62816 -5.21179
upperneck 31.3901 -1.28079 1.51441
head 16.0384 -0.751751 1.31707
rclavicle -1.18873e-013 3.93594e-014
rhumerus -28.6914 18.1162 -80.8362
rradius 65.7871
rwrist -16.196
rhand -3.95029 -20.1837
rfingers 7.12502
rthumb 21.8017 -48.9757
lclavicle -1.18873e-013 3.93594e-014
lhumerus -43.7635 -1.14123 72.3414
lradius 41.1114
lwrist 23.0553
lhand -26.3012 -10.7164
lfingers 7.12502
lthumb 0.254837 19.2632
rfemur 16.028 -9.26615 19.2618
rtibia 11.6645
rfoot -15.315 -18.5636
rtoes -23.3572
lfemur -51.8211 17.1777 -22.2485
ltibia 72.0566
lfoot -24.5773 3.00714
ltoes -2.57673
495
root -22.7264 15.255 -1.8778 380.74 121.87 3.44022
lowerback 8.97295 4.71228 -1.7456
upperback 4.97037 6.35313 -0.853809
thorax 0.0616993 3.25218 -0.464372
lowerneck -27.9225 -3.13975 -5.18878
upperneck 30.8159 -2.45782 2.41973
head 15.6858 -1.09745 1.44319
rclavicle 1.05654e-013 -2.5842e-014
rhumerus -30.486 17.0533 -81.1272
rradius 63.2337
rwrist -16.5258
rhand -4.9352 -19.8961
rfingers 7.12502
rthumb 20.8557 -48.7951
lclavicle 1.05654e-013 -2.5842e-014
lhumerus -42.9925 -4.00985 73.9519
lradius 45.0481
lwrist 24.2407
lhand -25.9287 -11.7132
lfingers 7.12502
lthumb 0.614619 18.2657
rfemur 13.0995 -9.81632 18.661
rtibia 18.725
rfoot -14.5532 -18.1162
rtoes -14.6356
lfemur -50.6677 16.8773 -22.5882
ltibia 71.8802
lfoot -25.332 3.65416
ltoes -3.5136
496
root -22.4899 15.2293 -2.12685 380.797 122.807 3.42744
lowerback 9.48404 4.47092 -1.47782
upperback 5.02208 6.05343 -0.586904
thorax -0.164512 3.10878 -0.353889
lowerneck -27.5596 -3.44682 -5.56652
upperneck 30.2663 -3.151 3.41957
head 15.4144 -1.28621 1.77796
rclavicle 3.3197e-014 -2.52457e-014
rhumerus -31.9702 16.5335 -81.1183
rradius 60.3703
rwrist -16.7664
rhand -6.87266 -18.9004
rfingers 7.12502
rthumb 18.9933 -47.9931
lclavicle 3.3197e-014 -2.52457e-014
lhumerus -42.3361 -6.20007 75.6169
lradius 49.1969
lwrist 24.9552
lhand -25.8788 -12.2545
lfingers 7.12502
lthumb 0.662826 17.7242
rfemur 9.78658 -10.6209 18.1986
rtibia 26.6778
rfoot -12.6141 -17.9584
rtoes -7.36101
lfemur -49.359 16.6513 -22.6685
ltibia 71.5755
lfoot -25.771 3.9229
ltoes -8.03943
497
root -22.2433 15.2069 -2.37019 379.813 123.819 2.73189
lowerback 10.3782 4.14597 -1.71857
upperback 5.28697 5.62157 -0.208039
thorax -0.433014 2.89832 0.148085
lowerneck -27.4281 -3.74772 -6.0334
upperneck 29.7186 -3.78728 4.45545
head 15.2114 -1.46008 2.15032
rclavicle 2.94201e-014 3.37934e-014
rhumerus -33.1495 15.8551 -80.8593
rradius 57.167
rwrist -16.3493
rhand -15.6466 -18.061
rfingers 7.12502
rthumb 10.5411 -47.7767
lclavicle 2.94201e-014 3.37934e-014
lhumerus -41.424 -8.55176 77.3157
lradius 53.4568
lwrist 25.3791
lhand -25.9714 -12.4416
lfingers 7.12502
lthumb 0.573359 17.5373
rfemur 6.38703 -11.4282 17.5172
rtibia 35.4402
rfoot -10.2572 -18.3129
rtoes -6.0375
lfemur -47.2769 16.432 -22.8918
ltibia 70.945
lfoot -26.2452 3.81445
ltoes -10.4322
498
root -21.9833 15.1949 -2.61233 377.453 124.755 0.614436
lowerback 11.4236 3.72584 -3.09862
upperback 5.56906 4.95343 0.264475
thorax -0.842644 2.55449 1.40832
lowerneck -27.2961 -3.9488 -6.53599
upperneck 29.3056 -4.11982 5.14127
head 15.0526 -1.56349 2.445
rclavicle 2.82274e-014 2.54444e-014
rhumerus -34.1995 15.6968 -80.1737
rradius 53.98
rwrist -16.1362
rhand -14.4207 -19.8225
rfingers 7.12502
rthumb 11.7235 -49.4745
lclavicle 2.82274e-014 2.54444e-014
lhumerus -40.6505 -10.7516 79.0277
lradius 57.8759
lwrist 25.4654
lhand -26.0661 -13.1734
lfingers 7.12502
lthumb 0.481914 16.8058
rfemur 2.76596 -12.6025 15.8552
rtibia 44.6005
rfoot -8.09184 -18.0473
rtoes -4.13435
lfemur -44.461 16.0335 -23.8387
ltibia 69.7644
lfoot -27.0879 3.58102
ltoes -10.3243
499
root -21.7278 15.1789 -2.84823 374.345 125.714 -2.5038
lowerback 12.5513 3.22393 -4.64372
upperback 5.62714 4.10566 0.308209
thorax -1.44395 2.12962 2.36022
lowerneck -27.0003 -4.10176 -6.76488
upperneck 29.2636 -4.45321 5.71391
head 15.0224 -1.64452 2.65718
rclavicle 1.03766e-013 -2.74323e-014
rhumerus -35.5771 15.2678 -79.7576
rradius 51.1501
rwrist -16.0274
rhand -13.6176 -21.1051
rfingers 7.12502
rthumb 12.4978 -50.7114
lclavicle 1.03766e-013 -2.74323e-014
lhumerus -40.1985 -13.4663 79.9361
lradius 62.6909
lwrist 25.1028
lhand -26.6871 -14.0279
lfingers 7.12502
lthumb -0.117841 15.9518
rfemur -1.4619 -14.5098 13.3489
rtibia 53.9807
rfoot -6.86766 -16.2837
rtoes -4.21646
lfemur -41.3981 15.286 -25.3718
ltibia 68.1175
lfoot -27.9888 3.27956
ltoes -9.78228
500
root -21.4569 15.2018 -3.08021 371.162 126.838 -5.72069
lowerback 13.8834 2.95027 -6.04403
upperback 5.44447 3.5 0.184482
thorax -2.36368 1.84515 3.03475
lowerneck -25.9526 -4.39961 -6.36362
upperneck 28.6342 -5.17693 5.91274
head 14.5715 -1.88989 2.51078
rclavicle 1.10127e-013 -8.0309e-014
rhumerus -37.6331 13.634 -79.4285
rradius 48.5866
rwrist -15.2356
rhand -12.624 -22.185
rfingers 7.12502
rthumb 13.4557 -51.7304
lclavicle 1.10127e-013 -8.0309e-014
lhumerus -39.705 -17.3663 80.4208
lradius 67.6297
lwrist 24.7611
lhand -26.8436 -11.9286
lfingers 7.12502
lthumb -0.269057 18.051
rfemur -6.06429 -16.2646 11.0486
rtibia 62.8701
rfoot -6.18301 -14.3189
rtoes -2.35441
lfemur -37.9145 14.4036 -26.8713
ltibia 65.96
lfoot -28.7365 2.63173
ltoes -8.00642
501
root -21.1823 15.2186 -3.30617 368.903 128.123 -8.06869
lowerback 14.8695 2.56947 -6.51288
upperback 5.19585 2.8526 -0.0571223
thorax -3.09561 1.55111 3.10911
lowerneck -24.7904 -4.64003 -5.958
upperneck 28.0829 -5.87909 6.37636
head 14.1469 -2.09237 2.48782
rclavicle -5.56597e-014 -1.55052e-014
rhumerus -39.9134 11.4545 -79.2223
rradius 46.3757
rwrist -13.9921
rhand -11.6551 -22.6172
rfingers 7.12502
rthumb 14.3893 -52.0985
lclavicle -5.56597e-014 -1.55052e-014
lhumerus -38.9376 -21.401 80.1879
lradius 72.2101
lwrist 24.2878
lhand -26.7481 -14.1042
lfingers 7.12502
lthumb -0.17678 15.8755
rfemur -11.1749 -18.3566 9.40723
rtibia 70.8842
rfoot -7.37773 -10.9962
rtoes -2.09687
lfemur -34.6177 13.4951 -27.885
ltibia 63.6198
lfoot -29.1964 2.19087
ltoes -6.80872
